<svg id="组_1" data-name="组 1" xmlns="http://www.w3.org/2000/svg" xmlns:xlink="http://www.w3.org/1999/xlink" width="2160" height="2160" viewBox="0 0 2160 2160">
  <defs>
    <style>
      .cls-1, .cls-11, .cls-12, .cls-5 {
        fill: #fff;
      }

      .cls-1 {
        stroke: #707070;
      }

      .cls-10, .cls-16, .cls-2 {
        fill: none;
      }

      .cls-10, .cls-11, .cls-12, .cls-2 {
        stroke: #000;
      }

      .cls-2 {
        stroke-linecap: round;
      }

      .cls-10, .cls-12, .cls-2 {
        stroke-width: 2px;
      }

      .cls-3 {
        clip-path: url(#clip-path);
      }

      .cls-4 {
        fill: #25a164;
      }

      .cls-6 {
        fill: #ffcd54;
      }

      .cls-7 {
        fill: #dd5249;
      }

      .cls-8 {
        clip-path: url(#clip-path-4);
      }

      .cls-9 {
        fill: #448df1;
      }

      .cls-11 {
        stroke-width: 3px;
      }

      .cls-13 {
        font-size: 853px;
      }

      .cls-13, .cls-14 {
        font-family: Raanana;
      }

      .cls-14 {
        font-size: 431px;
      }

      .cls-15 {
        stroke: none;
      }
    </style>
    <clipPath id="clip-path">
      <circle id="椭圆_1" data-name="椭圆 1" class="cls-1" cx="1080" cy="1080" r="1080"/>
    </clipPath>
    <clipPath id="clip-path-4">
      <path id="路径_2" data-name="路径 2" class="cls-2" d="M511,34.5H328.38s-31.724,77.2-96.363,123.611S69.623,229.123,69.623,229.123v73.652h213.7V1374.6H511V34.5" transform="translate(-69.623 -34.5)"/>
    </clipPath>
  </defs>
  <g id="ring-g">
    <g id="蒙版组_1" data-name="蒙版组 1" class="cls-3">
      <rect id="矩形_1" data-name="矩形 1" class="cls-4" width="1079" height="2160"/>
    </g>
    <circle id="椭圆_2" data-name="椭圆 2" class="cls-5" cx="755" cy="755" r="755" transform="translate(325 325)"/>
  </g>
  <g id="ring-y">
    <g id="蒙版组_1-2" data-name="蒙版组 1" class="cls-3">
      <rect id="矩形_1-2" data-name="矩形 1" class="cls-6" width="1081" height="1081" transform="translate(1079 1079)"/>
    </g>
    <circle id="椭圆_2-2" data-name="椭圆 2" class="cls-5" cx="755" cy="755" r="755" transform="translate(325 325)"/>
  </g>
  <g id="ring-r">
    <g id="蒙版组_1-3" data-name="蒙版组 1" class="cls-3">
      <path id="路径_3" data-name="路径 3" class="cls-7" d="M0,0H1079.784V1079.784H0Z" transform="translate(1079.784)"/>
    </g>
    <circle id="椭圆_2-3" data-name="椭圆 2" class="cls-5" cx="755" cy="755" r="755" transform="translate(325 325)"/>
  </g>
  <g id="蒙版组_2" data-name="蒙版组 2" class="cls-8" transform="translate(751.782 372.525)">
    <rect id="矩形_2" data-name="矩形 2" class="cls-9" width="2160" height="2160" transform="translate(-751.782 -372.525)"/>
  </g>
  <g id="penis" transform="translate(750.45 372.525)">
    <line id="直线_1" data-name="直线 1" class="cls-10" x2="183.563" transform="translate(259.148)"/>
    <path id="路径_1" data-name="路径 1" class="cls-2" d="M330.43,34.5C269.97,194.721,71.282,228.861,71.282,228.861" transform="translate(-71.282 -34.5)"/>
    <line id="直线_2" data-name="直线 2" class="cls-2" y2="75.585" transform="translate(0 194.361)"/>
    <line id="直线_3" data-name="直线 3" class="cls-2" x2="334.733" transform="translate(0 269.946)"/>
    <line id="直线_4" data-name="直线 4" class="cls-2" y2="1068.986" transform="translate(215.957 269.946)"/>
    <line id="直线_5" data-name="直线 5" class="cls-2" x2="226.755" transform="translate(215.957 1338.932)"/>
    <line id="直线_6" data-name="直线 6" class="cls-2" y1="1338.932" transform="translate(442.711)"/>
  </g>
  <g id="testicles" transform="translate(431.267 756.244)">
    <g id="椭圆_3" data-name="椭圆 3" class="cls-11" transform="translate(-0.267 -0.244)">
      <ellipse class="cls-15" cx="378.5" cy="378" rx="378.5" ry="378"/>
      <ellipse class="cls-16" cx="378.5" cy="378" rx="377" ry="376.5"/>
    </g>
    <g id="椭圆_4" data-name="椭圆 4" class="cls-12" transform="translate(540.733 -0.244)">
      <circle class="cls-15" cx="378" cy="378" r="378"/>
      <circle class="cls-16" cx="378" cy="378" r="377"/>
    </g>
    <ellipse id="椭圆_5" data-name="椭圆 5" class="cls-5" cx="356.5" cy="356" rx="356.5" ry="356" transform="translate(21.733 21.756)"/>
  </g>
  <text id="_9" data-name="9" class="cls-13" transform="translate(798 1367)"><tspan x="-183.47" y="0">9</tspan></text>
  <text id="_3" data-name="3" class="cls-13" transform="translate(1360 1367)"><tspan x="-183.47" y="0">3</tspan></text>
  <text id="_2" data-name="2" class="cls-14" transform="translate(1075 1238)"><tspan x="-92.703" y="0">2</tspan></text>
</svg>
